<?xml version="1.0" encoding="UTF-8"?>
<svg id="Radial_v2" data-name="Radial v2" xmlns="http://www.w3.org/2000/svg" viewBox="0 0 1205.75 1161.5">
  <defs>
    <style>
      .cls-1 {
        fill: none;
        stroke: #fff;
        stroke-miterlimit: 10;
        stroke-width: 9px;
      }
    </style>
  </defs>
  <ellipse class="cls-1" cx="353.93" cy="730.9" rx="259.63" ry="257.54" transform="translate(-318.93 276.21) rotate(-30.11)"/>
  <ellipse class="cls-1" cx="323.96" cy="658.97" rx="259.63" ry="257.54" transform="translate(-160.6 107.25) rotate(-15.11)"/>
  <ellipse class="cls-1" cx="313.64" cy="581.73" rx="259.63" ry="257.54" transform="translate(-1.14 .62) rotate(-.11)"/>
  <ellipse class="cls-1" cx="323.66" cy="504.45" rx="257.54" ry="259.63" transform="translate(-247.01 687.64) rotate(-75.11)"/>
  <ellipse class="cls-1" cx="353.34" cy="432.39" rx="257.54" ry="259.63" transform="translate(-197.62 523.28) rotate(-60.11)"/>
  <ellipse class="cls-1" cx="400.66" cy="370.48" rx="257.54" ry="259.63" transform="translate(-144.57 392.89) rotate(-45.11)"/>
  <ellipse class="cls-1" cx="462.39" cy="322.92" rx="257.54" ry="259.63" transform="translate(-99.6 275.56) rotate(-30.11)"/>
  <ellipse class="cls-1" cx="534.32" cy="292.95" rx="257.54" ry="259.63" transform="translate(-57.9 149.44) rotate(-15.11)"/>
  <ellipse class="cls-1" cx="611.57" cy="282.63" rx="257.54" ry="259.63" transform="translate(-.55 1.2) rotate(-.11)"/>
  <ellipse class="cls-1" cx="688.85" cy="292.65" rx="259.63" ry="257.54" transform="translate(229.04 883.18) rotate(-75.11)"/>
  <ellipse class="cls-1" cx="760.9" cy="322.33" rx="259.63" ry="257.54" transform="translate(102.28 821.42) rotate(-60.11)"/>
  <ellipse class="cls-1" cx="822.82" cy="369.65" rx="259.63" ry="257.54" transform="translate(-19.75 691.74) rotate(-45.11)"/>
  <ellipse class="cls-1" cx="870.38" cy="431.38" rx="259.63" ry="257.54" transform="translate(-98.96 494.89) rotate(-30.11)"/>
  <ellipse class="cls-1" cx="900.34" cy="503.31" rx="259.63" ry="257.54" transform="translate(-100.08 252.14) rotate(-15.11)"/>
  <ellipse class="cls-1" cx="910.66" cy="580.55" rx="259.63" ry="257.54" transform="translate(-1.14 1.79) rotate(-.11)"/>
  <ellipse class="cls-1" cx="900.64" cy="657.83" rx="257.54" ry="259.63" transform="translate(33.5 1359.23) rotate(-75.11)"/>
  <ellipse class="cls-1" cx="870.96" cy="729.89" rx="257.54" ry="259.63" transform="translate(-195.85 1121.32) rotate(-60.11)"/>
  <ellipse class="cls-1" cx="823.65" cy="791.8" rx="257.54" ry="259.63" transform="translate(-318.6 816.56) rotate(-45.11)"/>
  <ellipse class="cls-1" cx="761.91" cy="839.36" rx="257.54" ry="259.63" transform="translate(-318.28 495.53) rotate(-30.11)"/>
  <ellipse class="cls-1" cx="689.98" cy="869.33" rx="257.54" ry="259.63" transform="translate(-202.78 209.95) rotate(-15.11)"/>
  <ellipse class="cls-1" cx="612.74" cy="879.65" rx="257.54" ry="259.63" transform="translate(-1.73 1.2) rotate(-.11)"/>
  <ellipse class="cls-1" cx="535.46" cy="869.63" rx="259.63" ry="257.54" transform="translate(-442.55 1163.69) rotate(-75.11)"/>
  <ellipse class="cls-1" cx="463.4" cy="839.95" rx="259.63" ry="257.54" transform="translate(-495.75 823.18) rotate(-60.11)"/>
  <ellipse class="cls-1" cx="401.49" cy="792.63" rx="259.63" ry="257.54" transform="translate(-443.43 517.71) rotate(-45.11)"/>
</svg>
